<svg xmlns="http://www.w3.org/2000/svg" width="243.722" height="61.188" viewBox="0 0 243.722 61.188">
  <g id="resume-writing-help" transform="translate(-578.907 -32.812)">
    <g id="Group_1" data-name="Group 1" transform="translate(662.6 17)">
      <path id="Path_199" data-name="Path 199" d="M27.665,0H20.146l-4.52-7.387q-.507-.841-.973-1.5a8.365,8.365,0,0,0-.942-1.131,3.746,3.746,0,0,0-.993-.721,2.547,2.547,0,0,0-1.125-.25H9.83V0H3.283V-28.708H13.66q10.58,0,10.58,7.808a8,8,0,0,1-.466,2.773,7.679,7.679,0,0,1-1.317,2.292A8.322,8.322,0,0,1,20.4-14.074a10.677,10.677,0,0,1-2.685,1.161v.08a4.184,4.184,0,0,1,1.257.651,8.961,8.961,0,0,1,1.176,1.051A14.706,14.706,0,0,1,21.23-9.84q.517.691.942,1.351ZM9.83-23.863v7.988h2.837a4.739,4.739,0,0,0,3.385-1.2,3.985,3.985,0,0,0,1.3-3.023q0-3.764-4.56-3.764ZM47.812,0H30.381V-28.708H47.143v5.265H36.928v6.386h9.506v5.245H36.928v6.566H47.812Zm3.324-1.1V-7.507a12.5,12.5,0,0,0,3.831,2.192,12.45,12.45,0,0,0,4.175.731A9.369,9.369,0,0,0,61.3-4.8a5.092,5.092,0,0,0,1.54-.611,2.679,2.679,0,0,0,.922-.921,2.276,2.276,0,0,0,.3-1.151,2.468,2.468,0,0,0-.486-1.5,5.209,5.209,0,0,0-1.328-1.221,13.924,13.924,0,0,0-2-1.081q-1.155-.521-2.493-1.061a12.727,12.727,0,0,1-5.077-3.423,7.416,7.416,0,0,1-1.672-4.885,7.7,7.7,0,0,1,.912-3.854,7.688,7.688,0,0,1,2.483-2.653A11.205,11.205,0,0,1,58.047-28.7a18.915,18.915,0,0,1,4.378-.49,26.652,26.652,0,0,1,4.023.27,15.98,15.98,0,0,1,3.233.831V-22.1a9.809,9.809,0,0,0-1.591-.881,12.708,12.708,0,0,0-1.773-.631,13.674,13.674,0,0,0-1.814-.37,13,13,0,0,0-1.713-.12,9.038,9.038,0,0,0-2.027.21,5.237,5.237,0,0,0-1.54.591,2.959,2.959,0,0,0-.973.911A2.14,2.14,0,0,0,57.9-21.2a2.255,2.255,0,0,0,.385,1.291,4.39,4.39,0,0,0,1.094,1.081,11.647,11.647,0,0,0,1.723,1q1.013.49,2.29,1.011a25.65,25.65,0,0,1,3.131,1.531,11.114,11.114,0,0,1,2.381,1.832,7.127,7.127,0,0,1,1.52,2.332,8.151,8.151,0,0,1,.527,3.053,8.1,8.1,0,0,1-.922,4.034,7.433,7.433,0,0,1-2.5,2.643A10.931,10.931,0,0,1,63.854.06,21.514,21.514,0,0,1,59.425.5a24.922,24.922,0,0,1-4.55-.4A13.855,13.855,0,0,1,51.136-1.1Zm48.3-11.331Q99.434.5,87.232.5,75.4.5,75.4-12.132V-28.708h6.567v16.656q0,6.967,5.513,6.967,5.412,0,5.412-6.727v-16.9h6.547ZM138.875,0h-6.465V-17.177q0-2.783.243-6.146h-.162a29.935,29.935,0,0,1-.912,3.8L124.768,0h-5.351l-6.932-19.319a37.2,37.2,0,0,1-.912-4h-.182q.263,4.244.263,7.447V0h-5.9V-28.708h9.587l5.938,17.017a23.718,23.718,0,0,1,1.034,4.1h.122a40.928,40.928,0,0,1,1.155-4.144l5.938-16.977h9.343Zm24.038,0h-17.43V-28.708h16.761v5.265H152.029v6.386h9.506v5.245h-9.506v6.566h10.884Z" transform="translate(-2.883 45)" fill="#ffce22"/>
      <path id="Path_200" data-name="Path 200" d="M21.914-15.4,17.843,0H14L11.44-9.883a8.24,8.24,0,0,1-.247-1.729H11.15a10.508,10.508,0,0,1-.279,1.729L8.25,0H4.243L.193-15.4H3.985L6.155-5.146a12.246,12.246,0,0,1,.2,1.762h.064a8.527,8.527,0,0,1,.312-1.8L9.528-15.4h3.717L15.77-5.06a12.667,12.667,0,0,1,.247,1.654h.043a11.091,11.091,0,0,1,.226-1.719L18.412-15.4ZM37.21,0H33.225l-2.4-3.964q-.269-.451-.516-.806a4.476,4.476,0,0,0-.5-.607,1.986,1.986,0,0,0-.526-.387,1.336,1.336,0,0,0-.6-.134h-.935V0h-3.47V-15.4h5.5q5.607,0,5.607,4.189a4.338,4.338,0,0,1-.247,1.488,4.133,4.133,0,0,1-.7,1.23,4.426,4.426,0,0,1-1.09.945,5.623,5.623,0,0,1-1.423.623v.043a2.208,2.208,0,0,1,.666.349,4.769,4.769,0,0,1,.623.564,7.868,7.868,0,0,1,.575.693q.274.371.5.725ZM27.757-12.8v4.286h1.5a2.493,2.493,0,0,0,1.794-.645,2.151,2.151,0,0,0,.688-1.622q0-2.02-2.417-2.02Zm16.069-2.6v2.686H42.537V-2.686h1.289V0H37.778V-2.686h1.289V-12.719H37.778V-15.4Zm13.448,2.825H52.881V0H49.4V-12.579H45.028V-15.4H57.275Zm7.25-2.825v2.686H63.235V-2.686h1.289V0H58.477V-2.686h1.289V-12.719H58.477V-15.4ZM81.013,0h-3.5L71.162-9.679a14,14,0,0,1-.773-1.278h-.043q.086.816.086,2.492V0H67.155V-15.4h3.738l6.112,9.378q.419.634.773,1.257h.043a16.471,16.471,0,0,1-.086-2.116V-15.4h3.276ZM97.6-1.031A11.086,11.086,0,0,1,91.99.269a8.11,8.11,0,0,1-5.86-2.057,7.484,7.484,0,0,1-2.143-5.667,7.911,7.911,0,0,1,2.342-5.919,8.532,8.532,0,0,1,6.23-2.288,12.655,12.655,0,0,1,4.318.677v3.255a8.583,8.583,0,0,0-4.361-1.031A4.682,4.682,0,0,0,89-11.36,5.15,5.15,0,0,0,87.64-7.616a5.165,5.165,0,0,0,1.219,3.674,4.3,4.3,0,0,0,3.292,1.3A4.583,4.583,0,0,0,94.128-3V-6H91.045V-8.776H97.6ZM120.831,0h-3.48V-6.273H110.97V0H107.5V-15.4h3.47V-9.26h6.381V-15.4h3.48Zm13.18,0h-9.238V-15.4h8.884v2.825h-5.414v3.427h5.038v2.814h-5.038v3.523h5.769Zm12.063,0H136.9V-15.4h3.47v12.59h5.7Zm5.961-5.307V0h-3.47V-15.4H154q5.822,0,5.822,4.909a4.71,4.71,0,0,1-1.67,3.754,6.618,6.618,0,0,1-4.463,1.434Zm0-7.434v4.8H153.4q2.771,0,2.771-2.428,0-2.374-2.771-2.374Z" transform="translate(0.207 75)" fill="#1985c2"/>
    </g>
    <g id="Group_1721" data-name="Group 1721" transform="translate(-16.804 -7.915)">
      <g id="Group_2" data-name="Group 2" transform="translate(606.802 65.865)">
        <path id="Path_1" data-name="Path 1" d="M14.288,24a2.775,2.775,0,0,0-2.842,2.773v15.1c0,7.395,4.187,11.876,9.3,14.537C27.7,60.037,36.4,60.05,36.4,60.05s8.7-.014,15.655-3.641c5.113-2.659,9.3-7.14,9.3-14.535v-15.1a2.77,2.77,0,0,0-3.84-2.562L36.4,33.016l-21.114-8.8a2.787,2.787,0,0,0-1-.211Zm2.7,6.932,18.342,7.642,1.068.216a2.824,2.824,0,0,0,1.067-.216L55.81,30.937V41.875c0,4.93-2.909,7.844-6.314,9.619C43.676,54.522,36.4,54.5,36.4,54.5s-7.276.017-13.1-3.011c-3.4-1.775-6.313-4.689-6.313-9.619Z" transform="translate(-11.446 -24.001)" fill="#1985c2"/>
      </g>
      <g id="Group_3" data-name="Group 3" transform="translate(595.711 40.915)">
        <path id="Path_1-2" data-name="Path 1" d="M39.045,5a2.773,2.773,0,0,0-.876.141L4.9,16.232A2.773,2.773,0,0,0,3,18.864v30.5a2.773,2.773,0,1,0,5.545,0V22.715l29.624,9.871a2.785,2.785,0,0,0,1.752,0L73.194,21.495a2.773,2.773,0,0,0,0-5.263L39.922,5.141A2.773,2.773,0,0,0,39.045,5Z" transform="translate(-3 -5)" fill="#ffce22"/>
      </g>
    </g>
  </g>
</svg>
