<svg width="510" height="510" viewBox="0 0 510 510" fill="none" xmlns="http://www.w3.org/2000/svg">
<path d="M178.625 225.066C185.151 224.458 189.567 214.593 188.489 203.032C187.41 191.472 181.246 182.594 174.72 183.203C168.194 183.812 163.778 193.677 164.856 205.237C165.935 216.797 172.099 225.675 178.625 225.066Z" fill="#D8A38F"/>
<path d="M334.658 182.736C328.132 182.127 321.967 191.005 320.888 202.565C319.81 214.125 324.226 223.99 330.752 224.599C337.278 225.208 343.442 216.33 344.521 204.77C345.599 193.21 341.183 183.345 334.658 182.736Z" fill="#D8A38F"/>
<path d="M255 509.644C395.636 509.644 509.644 395.636 509.644 255C509.644 114.364 395.636 0.356293 255 0.356293C114.364 0.356293 0.356323 114.364 0.356323 255C0.356323 395.636 114.364 509.644 255 509.644Z" fill="#00CF5D"/>
<path d="M390.968 269.58C363.503 297.045 346.211 261.103 345.193 250.931C343.159 235.673 352.992 222.11 359.434 208.208C371.641 188.542 378.762 165.146 378.762 140.054C378.762 70.2053 323.493 13.5801 255.339 13.5801C187.185 13.5801 131.577 70.2053 131.577 140.054C131.577 165.146 138.698 188.542 150.905 208.208C157.347 222.11 166.841 236.012 165.146 250.931C163.789 261.103 146.836 297.045 119.371 269.58C117.336 277.04 115.302 284.499 115.302 292.298C114.963 318.746 139.037 342.142 165.146 342.481H345.193C371.302 342.481 395.376 318.746 395.037 292.298C394.698 284.499 392.664 277.04 390.968 269.58Z" fill="#333842"/>
<path d="M207.869 505.236L166.502 334.004L86.8199 358.756C70.2054 363.842 57.6597 377.066 52.9126 393.681L49.5219 405.209C86.8199 456.409 143.106 493.029 207.869 505.236ZM460.478 405.209L457.087 393.681C452.34 377.066 439.456 363.842 423.18 358.756L343.498 334.004L337.395 384.187L301.792 505.236C366.894 493.029 423.18 456.409 460.478 405.209Z" fill="#013270"/>
<path d="M204.139 267.546H305.861V397.75H204.139V267.546Z" fill="#FFBF7D"/>
<path d="M182.438 353.331L227.535 507.948C236.69 508.966 245.506 509.305 255 509.305V397.411L182.438 353.331Z" fill="#DEDEDF"/>
<path d="M334.004 191.254C334.004 246.862 298.74 295.011 255 295.011C211.26 295.011 175.996 246.862 175.996 191.254C175.996 135.646 211.26 94.2795 255 94.2795C298.74 94.2795 334.004 135.646 334.004 191.254Z" fill="#FFCB95"/>
<path d="M203.8 300.436L255 397.411V473.024L211.26 377.066L203.8 300.436Z" fill="#F1F3F7"/>
<path d="M181.76 323.832L166.502 334.004L140.054 416.06L167.858 417.755L150.905 443.185L193.967 502.184C207.191 505.236 220.415 507.609 234.317 508.626L181.76 323.832Z" fill="#001D33"/>
<path d="M203.8 300.436L211.26 377.066L164.807 410.974L181.76 323.832L203.8 300.436Z" fill="#FCFDFF"/>
<path d="M255 397.411V509.305C264.155 509.305 273.31 508.627 282.465 507.948L327.562 353.331L255 397.411Z" fill="#DEDEDF"/>
<path d="M306.2 300.436L255 397.411V473.024L298.74 377.066L306.2 300.436Z" fill="#FCFDFF"/>
<path d="M343.498 334.004L328.24 323.832L275.344 508.626C289.246 507.609 302.47 505.236 315.694 502.184L358.756 443.185L341.803 417.755L369.607 416.06L343.498 334.004Z" fill="#001D33"/>
<path d="M306.2 300.436L298.74 377.066L345.193 410.974L328.24 323.832L306.2 300.436Z" fill="#F1F3F7"/>
</svg>
