<svg width="512" height="512" viewBox="0 0 512 512" fill="none" xmlns="http://www.w3.org/2000/svg">
<path d="M254.644 509.287C395.28 509.287 509.287 395.28 509.287 254.644C509.287 114.008 395.28 0 254.644 0C114.008 0 0 114.008 0 254.644C0 395.28 114.008 509.287 254.644 509.287Z" fill="#00CF5D"/>
<path d="M199.375 280.752H309.913V340.768H199.375V280.752Z" fill="#F2B883"/>
<path d="M142.411 422.485C138.342 391.968 151.905 345.176 160.381 320.763H160.042L56.9642 345.854C44.4185 348.906 33.5682 356.027 25.7695 365.86C55.947 428.249 110.877 476.058 178.013 497.42L147.836 466.564L175.64 429.266L142.411 422.485ZM483.857 365.86C476.058 356.027 465.208 348.906 452.662 345.854L349.245 320.763H348.906C357.044 345.515 370.607 391.968 366.877 422.485L333.648 428.927L361.452 466.225L331.613 497.081C398.411 476.058 453.34 428.249 483.857 365.86Z" fill="#013270"/>
<path d="M316.016 297.028L300.419 328.901L254.644 337.717L208.869 328.901L193.272 297.028L190.898 298.723C183.438 317.033 164.111 389.934 246.167 508.948C248.879 508.948 251.931 509.287 254.644 509.287C257.356 509.287 260.408 509.287 263.121 508.948C345.176 389.934 325.51 317.033 318.389 298.723L316.016 297.028Z" fill="#FCFDFF"/>
<path d="M254.644 337.717L214.294 361.113L243.115 394.003H266.172L294.993 361.113L254.644 337.717Z" fill="#8E342D"/>
<path d="M243.115 394.003L214.294 500.132L226.501 507.592C235.656 508.609 245.15 509.287 254.644 509.287C264.138 509.287 273.632 508.609 282.787 507.592L294.993 500.132L266.172 394.003H243.115Z" fill="#8E342D"/>
<path d="M160.042 320.763C151.905 345.515 138.342 391.968 142.072 422.485L175.301 428.927L147.836 466.564L177.674 497.42C199.375 504.201 222.432 508.27 246.167 508.948C164.111 389.934 183.778 317.033 190.898 298.723L160.042 320.763Z" fill="#001D33"/>
<path d="M199.375 287.534C199.375 287.534 205.817 321.78 254.644 337.717L203.105 382.135C203.105 382.135 169.536 326.866 199.375 287.534ZM309.913 287.534C309.913 287.534 303.47 321.78 254.644 337.717L306.183 382.135C306.183 382.135 339.751 326.866 309.913 287.534Z" fill="#DEDEDF"/>
<path d="M318.05 298.723C325.51 317.033 344.837 389.934 262.781 508.948C286.517 508.27 309.574 504.201 331.274 497.42L361.113 466.564L333.309 429.266L366.538 422.824C370.607 392.307 357.044 345.515 348.567 321.102L318.05 298.723Z" fill="#001D33"/>
<path d="M170.582 223.036C177.172 221.613 179.471 206.363 175.718 188.973C171.964 171.584 163.579 158.64 156.99 160.062C150.4 161.484 148.101 176.734 151.854 194.124C155.607 211.514 163.992 224.458 170.582 223.036Z" fill="#F2B883"/>
<path d="M352.09 160.277C345.5 158.854 337.115 171.798 333.362 189.188C329.608 206.578 331.907 221.828 338.497 223.25C345.087 224.673 353.472 211.728 357.225 194.339C360.979 176.949 358.679 161.699 352.09 160.277Z" fill="#F2B883"/>
<path d="M329.918 68.8318L342.125 160.042L335.682 241.759L254.644 304.148L174.962 249.219L166.146 147.836L162.755 86.4636L329.918 68.8318Z" fill="#FFCB95"/>
<path d="M332.97 49.1656C254.644 -25.7695 176.657 49.1656 176.657 49.1656C176.657 49.1656 133.595 96.9748 156.652 160.721C156.652 160.721 168.18 167.841 168.18 184.456C168.18 184.456 166.146 243.454 176.318 259.73C185.473 274.31 226.162 307.539 251.592 312.964H258.374C283.804 307.539 324.154 274.649 333.309 259.73C343.142 243.793 341.446 184.456 341.446 184.456C341.446 167.841 352.975 160.721 352.975 160.721C376.032 96.9748 332.97 49.1656 332.97 49.1656ZM335.682 214.294C329.918 243.793 316.355 240.742 312.964 252.27C309.574 263.799 303.131 261.764 303.131 261.764V234.638C303.131 220.058 272.954 217.685 260.747 217.007C258.034 217.007 255.661 219.041 255.661 222.093C255.661 225.144 258.374 227.518 261.086 227.179C287.195 224.466 296.35 237.351 296.35 237.351C301.097 274.31 264.477 283.465 264.477 283.465C254.983 275.666 264.138 268.885 264.138 268.885H245.15C245.15 268.885 254.305 275.666 244.811 283.465C244.811 283.465 208.191 273.971 212.938 237.351C212.938 237.351 222.093 224.466 248.201 227.179C251.253 227.518 253.627 225.144 253.627 222.093C253.627 219.38 251.253 217.007 248.54 217.007C236.334 217.346 206.156 220.058 206.156 234.638V261.764C206.156 261.764 199.375 263.799 196.323 252.27C192.932 240.742 179.37 244.132 173.605 214.294C167.841 184.795 171.232 142.072 183.099 131.221L176.996 103.078C178.013 93.9232 230.57 103.078 230.57 103.078C222.093 105.452 192.593 107.486 192.593 107.486C225.823 112.911 287.873 95.9576 287.873 95.9576C282.787 100.027 251.253 107.486 251.253 107.486C291.603 103.417 317.033 85.7854 321.441 82.3947C320.763 83.4119 319.407 86.1245 317.372 92.906C313.981 104.434 326.527 130.882 326.527 130.882C338.056 142.072 341.446 184.795 335.682 214.294Z" fill="#333842"/>
</svg>
